# xmcd CD database file
#
# Track frame offsets:
#	150
#	7597
#	27622
#	50426
#	70041
#	91731
#	116271
#	139641
#	154189
#	180584
#
# Disc length: 2625 seconds
#
# Revision: 2
# Processed by: cddbd v1.5.2PL0 Copyright (c) Steve Scherf et al.
# Submitted via: CDex 1.70beta2
#
DISCID=6f0a3f0a
DTITLE=Ukd Project - Beyond Two Worlds
DYEAR=2007
DGENRE=New Age
TTITLE0=Beyond Two Worlds
TTITLE1=It Ain't Bad
TTITLE2=Alien Voice
TTITLE3=Center Of My Heart
TTITLE4=Calling My Name
TTITLE5=Falling In Faren Lands
TTITLE6=Highway To Silence
TTITLE7=Heaven And Sky
TTITLE8=Sound Of 80's
TTITLE9=Crazy
EXTD=YEAR: 2007
EXTT0=
EXTT1=
EXTT2=
EXTT3=
EXTT4=
EXTT5=
EXTT6=
EXTT7=
EXTT8=
EXTT9=
PLAYORDER=
